<svg width="216" height="28" fill="none" xmlns="http://www.w3.org/2000/svg"><path fill-rule="evenodd" clip-rule="evenodd" d="M28 8.72c0-.332 0-.664-.002-.997-.002-.28-.005-.56-.012-.84-.017-.61-.053-1.225-.161-1.828a6.17 6.17 0 0 0-.573-1.738A5.843 5.843 0 0 0 24.695.762a6.174 6.174 0 0 0-1.74-.573c-.602-.108-1.218-.144-1.828-.16-.28-.008-.56-.012-.84-.013-.333-.002-.665-.002-.998-.002L15.427 0H12.54L8.745.014c-.333 0-.666 0-1 .002-.28.001-.56.005-.841.012C6.292.045 5.675.081 5.07.19 4.457.3 3.886.48 3.33.762A5.858 5.858 0 0 0 .767 3.317a6.159 6.159 0 0 0-.574 1.738C.084 5.658.048 6.273.032 6.883c-.008.28-.011.56-.013.84C.017 8.056 0 8.47 0 8.801v6.66l.017 3.82c0 .333 0 .666.002 1 .002.28.005.56.013.84.016.611.052 1.227.16 1.831.111.613.291 1.183.575 1.74a5.853 5.853 0 0 0 2.561 2.559 6.188 6.188 0 0 0 1.743.573c.605.109 1.221.145 1.833.161.28.008.56.011.842.013.333.002.666.002 1 .002h10.543c.332 0 .665 0 .998-.002.28-.002.56-.005.84-.013.61-.016 1.226-.052 1.83-.16a6.165 6.165 0 0 0 1.738-.574 5.845 5.845 0 0 0 2.557-2.559 6.183 6.183 0 0 0 .573-1.74c.108-.604.144-1.22.16-1.83.008-.281.011-.561.013-.842.002-.333.002-.666.002-.998v-6.743V8.72" fill="url(#paint0_linear_507_959)"/><mask id="a" style="mask-type:alpha" maskUnits="userSpaceOnUse" x="0" y="2" width="28" height="18"><path fill-rule="evenodd" clip-rule="evenodd" d="M0 19.456h28V2.639H0v16.817z" fill="url(#paint1_linear_507_959)"/></mask><g mask="url(#a)"><rect opacity=".48" x="2" y="14" width="24" height="1" rx=".5" fill="#70C8FA"/><rect opacity=".48" x="2" y="10" width="24" height="1" rx=".5" fill="#70C8FA"/><rect opacity=".48" x="2" y="6" width="24" height="1" rx=".5" fill="#70C8FA"/><path fill-rule="evenodd" clip-rule="evenodd" d="M8.75 3a.75.75 0 0 0-.75.75v13.5c0 .414.336.75.75.75h2.5a.75.75 0 0 0 .75-.75V3.75a.75.75 0 0 0-.75-.75h-2.5zm13 2a.75.75 0 0 0-.75.75v12.5c0 .414.336.75.75.75h2.5a.75.75 0 0 0 .75-.75V5.75a.75.75 0 0 0-.75-.75h-2.5z" fill="url(#paint2_linear_507_959)"/><path fill-rule="evenodd" clip-rule="evenodd" d="M16.75 9a.75.75 0 0 0-.75.75v8.5c0 .414.336.75.75.75h2.5a.75.75 0 0 0 .75-.75v-8.5a.75.75 0 0 0-.75-.75h-2.5zm-13 3a.75.75 0 0 0-.75.75v4.5c0 .414.336.75.75.75h2.5a.75.75 0 0 0 .75-.75v-4.5a.75.75 0 0 0-.75-.75h-2.5z" fill="url(#paint3_linear_507_959)"/></g><path opacity=".5" fill-rule="evenodd" clip-rule="evenodd" d="M7.492 24.063c-1.338 0-1.771-.267-1.872-.348-.897-.727-1.19-2.856-1.19-3.508 0-.327.028-.795.27-1.083.045-.054.26-.24 1.134-.377a11.333 11.333 0 0 1 1.658-.126c2.582 0 3.361.689 3.491.827.278.295.42.744.42 1.333 0 .876-.282 1.564-.517 1.987-.288.517-.634.859-.85.968-.359.183-1.476.326-2.544.326" fill="url(#paint4_linear_507_959)"/><path opacity=".5" fill-rule="evenodd" clip-rule="evenodd" d="M20.508 24.063c1.338 0 1.771-.267 1.872-.348.897-.727 1.19-2.856 1.19-3.508 0-.327-.028-.795-.27-1.083-.045-.054-.26-.24-1.134-.377a11.332 11.332 0 0 0-1.658-.126c-2.582 0-3.361.689-3.491.827-.278.295-.42.744-.42 1.333 0 .876.281 1.564.517 1.987.288.517.634.859.85.968.359.183 1.476.326 2.544.326" fill="url(#paint5_linear_507_959)"/><path fill-rule="evenodd" clip-rule="evenodd" d="M23.352 20.207c-.002.538-.266 2.655-1.11 3.338-.038.03-.435.299-1.598.299-.683 0-1.53-.035-1.998-.123-.536-.1-.728-.206-1-.534-.39-.466-.83-1.334-.83-2.406 0-.532.121-.93.36-1.183.05-.054.256-.244.772-.421.65-.224 1.51-.337 2.56-.337.523 0 1.124.046 1.61.12 1.35.208 1.236.495 1.234 1.247m-12.998 2.98c-.272.328-.464.434-1 .534-.468.088-1.315.123-1.999.123-1.162 0-1.56-.269-1.597-.3-.844-.682-1.108-2.799-1.11-3.337-.002-.752-.116-1.039 1.235-1.247a11.27 11.27 0 0 1 1.61-.12c1.049 0 1.91.113 2.559.337.516.177.721.367.772.42.239.254.36.652.36 1.184 0 1.072-.44 1.94-.83 2.407m15.771-5.03a.42.42 0 0 0-.324-.35c-.48-.108-1.704-.308-4.145-.308-4.758 0-5.168.608-7.656.608-2.488 0-2.898-.608-7.656-.608-2.441 0-3.664.2-4.145.307a.419.419 0 0 0-.324.35c-.01.064-.016.138-.016.218 0 .241.005.378.082.52.121.22 1.149.656 1.313 1.53.164.876.547 3.118 1.367 3.938.547.547 1.777.657 3.035.657 1.538 0 2.536-.212 2.926-.4.3-.143 1.398-.665 1.887-2.854.369-1.655.341-1.79.712-2.058.262-.188.655-.24.819-.24.164 0 .557.052.819.24.37.267.343.403.712 2.058.489 2.19 1.586 2.71 1.887 2.855.39.187 1.388.399 2.926.399 1.258 0 2.488-.11 3.035-.657.82-.82 1.203-3.062 1.367-3.937.164-.875 1.192-1.311 1.313-1.531.077-.142.082-.279.082-.52 0-.08-.007-.154-.016-.218" fill="url(#paint6_linear_507_959)"/><path fill-rule="evenodd" clip-rule="evenodd" d="M15.811 18.748c0 .458-.338 1.069-.614 1.49a.081.081 0 0 1-.111.025c-.275-.175-.641-.193-1.086-.193-.439 0-.84.036-1.1.229a.082.082 0 0 1-.121-.027c-.25-.473-.355-1.054-.355-1.054v-.47h3.387z" fill="#CC7323"/><path fill-rule="evenodd" clip-rule="evenodd" d="M16.214 18.58c0 .147-.188.374-.475.585a2.87 2.87 0 0 1-.23.153 3.758 3.758 0 0 1-.743.36c-.257.086-.55.143-.9.143-.294 0-.542-.021-.75-.058a1.967 1.967 0 0 1-.609-.198c-.286-.158-.385-.359-.385-.515 0-.254.048-.626.242-1.037l.012-.025a.082.082 0 0 1 .084-.046c.452.055.935.09 1.54.09.789 0 1.368-.06 1.945-.145a.082.082 0 0 1 .085.045l.012.024c.077.161.172.405.172.624" fill="#E4AA65"/><path d="M45.959 20.803c.85 0 1.614-.123 2.294-.37a4.875 4.875 0 0 0 1.749-1.08 4.765 4.765 0 0 0 1.116-1.706c.258-.662.387-1.403.387-2.223V13.85H46.24v1.731h3.05l-.009.264c-.011.597-.155 1.122-.43 1.573-.276.451-.66.803-1.152 1.055-.492.246-1.06.369-1.705.369a3.524 3.524 0 0 1-1.53-.325 3.296 3.296 0 0 1-1.16-.932 4.357 4.357 0 0 1-.738-1.485c-.17-.58-.255-1.234-.255-1.96v-.018c0-.955.147-1.781.44-2.478.293-.698.709-1.234 1.248-1.609.545-.38 1.186-.571 1.925-.571.814 0 1.5.19 2.056.571.557.381.938.923 1.143 1.626l.026.08h2.26l-.018-.089a4.703 4.703 0 0 0-.95-2.17 4.955 4.955 0 0 0-1.898-1.45c-.768-.352-1.64-.528-2.62-.528-1.2 0-2.246.272-3.137.817-.885.54-1.57 1.307-2.056 2.303-.487.99-.73 2.16-.73 3.507v.017c0 1.026.138 1.949.413 2.769.281.82.68 1.52 1.195 2.1a5.218 5.218 0 0 0 1.873 1.328c.732.304 1.558.457 2.478.457zM57.982 20.689c.65 0 1.222-.083 1.714-.247a4.19 4.19 0 0 0 1.248-.659 3.6 3.6 0 0 0 .818-.888c.205-.322.345-.638.422-.949l.017-.088h-2.074l-.026.062c-.065.152-.188.31-.37.474a2.39 2.39 0 0 1-.685.414c-.281.11-.618.167-1.01.167-.505 0-.941-.112-1.31-.334a2.202 2.202 0 0 1-.844-.967c-.2-.422-.299-.926-.299-1.512v-.879c0-.615.1-1.134.299-1.556.205-.427.48-.75.826-.966a2.203 2.203 0 0 1 1.204-.334c.445 0 .838.105 1.178.316.345.211.615.527.808.95.194.421.29.952.29 1.59v.87l1.038-1.37h-6.724v1.467h7.796v-.72c0-.967-.179-1.811-.536-2.532a3.97 3.97 0 0 0-1.53-1.679c-.656-.404-1.438-.606-2.346-.606-.909 0-1.7.208-2.373.624a4.165 4.165 0 0 0-1.565 1.749c-.363.744-.545 1.62-.545 2.628v.009c0 1.02.185 1.901.554 2.645.37.738.894 1.31 1.573 1.714.686.404 1.503.607 2.452.607zM68.564 20.689c.65 0 1.222-.083 1.714-.247.492-.17.908-.39 1.248-.659.346-.275.618-.571.818-.888.205-.322.346-.638.422-.949l.017-.088H70.71l-.026.062c-.065.152-.188.31-.37.474a2.391 2.391 0 0 1-.685.414c-.281.11-.618.167-1.01.167-.505 0-.941-.112-1.31-.334a2.202 2.202 0 0 1-.844-.967c-.2-.422-.299-.926-.299-1.512v-.879c0-.615.1-1.134.299-1.556.205-.427.48-.75.826-.966a2.203 2.203 0 0 1 1.204-.334c.445 0 .838.105 1.178.316.346.211.615.527.809.95.193.421.29.952.29 1.59v.87l1.037-1.37h-6.724v1.467h7.796v-.72c0-.967-.179-1.811-.536-2.532a3.97 3.97 0 0 0-1.53-1.679c-.656-.404-1.438-.606-2.346-.606-.908 0-1.7.208-2.373.624a4.164 4.164 0 0 0-1.565 1.749c-.363.744-.545 1.62-.545 2.628v.009c0 1.02.185 1.901.554 2.645.37.738.894 1.31 1.573 1.714.686.404 1.503.607 2.453.607zM75.13 20.495h2.18V7.197h-2.18v13.298zm6.03 0h2.627L79.542 14.8l-1.608 1.345 3.225 4.35zm-4.035-3.173l1.248-1.274.976-.747 4.183-4.395h-2.531l-3.542 3.938h-.413l.079 2.478zM90.766 20.653c.802 0 1.497-.199 2.083-.597.591-.405 1.048-.976 1.37-1.714.323-.744.484-1.623.484-2.637v-.018c0-1.013-.161-1.89-.483-2.627-.317-.745-.77-1.316-1.363-1.714-.585-.399-1.283-.598-2.091-.598-.44 0-.85.07-1.23.211-.382.135-.716.328-1.003.58a2.73 2.73 0 0 0-.685.896h-.15V7.197H85.51v13.298h2.188v-1.503h.15c.175.346.404.645.685.897.287.246.618.436.993.571.375.129.788.193 1.24.193zm-.686-1.845c-.492 0-.92-.123-1.283-.37-.363-.252-.642-.609-.835-1.072-.193-.463-.29-1.014-.29-1.652v-.018c0-.644.097-1.198.29-1.66.2-.464.477-.821.835-1.073.363-.252.79-.378 1.283-.378.498 0 .926.126 1.283.378.358.252.633.61.826 1.072.194.457.29 1.008.29 1.652v.018c0 .645-.096 1.201-.29 1.67-.193.463-.468.817-.826 1.064-.357.246-.785.369-1.283.369zM100.979 20.689c.65 0 1.221-.083 1.713-.247a4.17 4.17 0 0 0 1.248-.659c.346-.275.619-.571.818-.888.205-.322.346-.638.422-.949l.017-.088h-2.074l-.026.062c-.065.152-.188.31-.369.474a2.4 2.4 0 0 1-.686.414c-.281.11-.618.167-1.011.167-.504 0-.94-.112-1.31-.334a2.202 2.202 0 0 1-.843-.967c-.2-.422-.299-.926-.299-1.512v-.879c0-.615.1-1.134.299-1.556.205-.427.48-.75.826-.966a2.203 2.203 0 0 1 1.204-.334c.446 0 .838.105 1.178.316.346.211.615.527.809.95.193.421.29.952.29 1.59v.87l1.037-1.37h-6.724v1.467h7.796v-.72c0-.967-.179-1.811-.536-2.532a3.973 3.973 0 0 0-1.529-1.679c-.657-.404-1.439-.606-2.347-.606-.908 0-1.7.208-2.373.624a4.165 4.165 0 0 0-1.565 1.749c-.363.744-.545 1.62-.545 2.628v.009c0 1.02.185 1.901.554 2.645.37.738.894 1.31 1.573 1.714.686.404 1.503.607 2.453.607zM107.456 20.495h2.18v-5.59c0-.48.085-.893.255-1.239a1.98 1.98 0 0 1 .729-.817c.317-.194.694-.29 1.134-.29.656 0 1.14.187 1.45.562.317.37.475.926.475 1.67v5.704h2.188V14.29c0-1.142-.284-2.024-.852-2.645-.563-.622-1.38-.932-2.453-.932-.697 0-1.277.15-1.74.448a2.692 2.692 0 0 0-1.037 1.213h-.149v-1.468h-2.18v9.59zM122.538 20.689c.815 0 1.512-.138 2.092-.414a3.467 3.467 0 0 0 1.397-1.151 3.923 3.923 0 0 0 .677-1.714l.009-.07-2.057.009-.017.035c-.135.504-.375.885-.721 1.142-.346.258-.803.387-1.371.387-.498 0-.923-.126-1.275-.378-.351-.258-.624-.627-.817-1.107-.187-.487-.281-1.067-.281-1.74v-.018c0-.674.094-1.248.281-1.723.188-.474.457-.835.809-1.08.357-.253.785-.379 1.283-.379.592 0 1.063.15 1.415.449.357.298.586.682.685 1.15l.009.027h2.066v-.044a3.813 3.813 0 0 0-.651-1.74 3.518 3.518 0 0 0-1.415-1.186c-.592-.288-1.298-.431-2.118-.431-.961 0-1.784.2-2.47.598a3.875 3.875 0 0 0-1.573 1.696c-.363.738-.545 1.623-.545 2.654v.018c0 1.048.182 1.948.545 2.698a3.989 3.989 0 0 0 1.573 1.714c.686.398 1.509.598 2.47.598zM128.857 20.495h2.189v-5.59c0-.48.085-.893.255-1.239.176-.351.419-.624.729-.817.317-.194.692-.29 1.125-.29.662 0 1.152.187 1.468.562.316.375.475.935.475 1.679v5.695h2.179V14.3c0-.762-.129-1.41-.386-1.943a2.69 2.69 0 0 0-1.117-1.221c-.492-.281-1.092-.422-1.801-.422-.698 0-1.278.15-1.741.448a2.698 2.698 0 0 0-1.037 1.213h-.149V7.197h-2.189v13.298zM145.943 20.495h4.281c.908 0 1.684-.143 2.329-.43.65-.294 1.151-.71 1.503-1.249.351-.539.527-1.177.527-1.916v-.017a2.97 2.97 0 0 0-.369-1.477 2.975 2.975 0 0 0-1.02-1.072c-.427-.275-.925-.436-1.494-.483v-.15c.428-.07.809-.234 1.143-.492.34-.264.609-.589.808-.976.205-.386.308-.802.308-1.248v-.017c0-.645-.155-1.204-.466-1.679-.305-.475-.747-.838-1.327-1.09-.574-.258-1.263-.386-2.065-.386h-4.158V9.57h3.604c.685 0 1.219.159 1.599.475.381.31.572.747.572 1.31v.017c0 .58-.211 1.023-.633 1.327-.416.305-1.025.457-1.828.457h-3.314v1.609h3.665c.58 0 1.067.073 1.459.22.399.146.698.366.897.659.199.293.299.653.299 1.08v.018c0 .645-.217 1.14-.651 1.485-.433.34-1.069.51-1.907.51h-3.762v1.758zm-1.133 0h2.258V7.812h-2.258v12.683zM156.78 20.495h2.18v-5.572c0-.463.1-.861.299-1.196.199-.333.477-.591.835-.773.363-.181.788-.272 1.274-.272.188 0 .369.011.545.035.182.017.36.047.536.088v-1.96a2.847 2.847 0 0 0-.404-.07 4.138 4.138 0 0 0-.475-.027c-.627 0-1.154.144-1.582.43-.422.282-.715.683-.879 1.205h-.149v-1.477h-2.18v9.59zM168.092 20.689c.961 0 1.784-.2 2.47-.598a4.009 4.009 0 0 0 1.59-1.723c.375-.744.563-1.632.563-2.663v-.018c0-1.03-.188-1.918-.563-2.663a4.01 4.01 0 0 0-1.599-1.713c-.686-.399-1.506-.598-2.461-.598-.949 0-1.77.202-2.461.606a4.023 4.023 0 0 0-1.591 1.714c-.375.744-.562 1.63-.562 2.655v.017c0 1.031.184 1.919.553 2.663a4.085 4.085 0 0 0 1.591 1.723c.691.398 1.515.598 2.47.598zm0-1.776c-.504 0-.935-.126-1.292-.378-.352-.252-.621-.615-.809-1.09-.187-.48-.281-1.06-.281-1.74v-.018c0-.673.094-1.247.281-1.722.194-.48.466-.847.818-1.099.351-.252.779-.378 1.283-.378.504 0 .931.126 1.283.378.357.252.63.618.817 1.099.188.475.282 1.049.282 1.723v.017c0 .674-.094 1.251-.282 1.731-.187.475-.457.841-.808 1.1-.352.251-.782.377-1.292.377zM176.345 20.495h2.267l1.855-6.952h.149l1.872 6.952h2.285l2.602-9.589h-2.162l-1.6 7.216h-.14l-1.864-7.216h-2.074l-1.854 7.216h-.15l-1.591-7.216h-2.197l2.602 9.59zM192.622 20.689c.791 0 1.491-.127 2.101-.378.615-.252 1.098-.607 1.45-1.064.351-.463.527-.999.527-1.608v-.01c0-.702-.225-1.262-.677-1.678-.451-.416-1.148-.73-2.091-.94l-1.547-.343a3.935 3.935 0 0 1-.835-.281 1.232 1.232 0 0 1-.466-.37.865.865 0 0 1-.141-.492v-.008c0-.24.071-.449.211-.624.147-.182.346-.32.598-.414.252-.1.539-.149.861-.149.516 0 .929.108 1.24.325.31.211.503.472.58.783v.026h2.065v-.027a2.623 2.623 0 0 0-.545-1.397c-.316-.41-.756-.732-1.318-.967-.563-.24-1.234-.36-2.013-.36-.75 0-1.415.123-1.995.369-.58.246-1.034.589-1.362 1.028-.323.44-.484.95-.484 1.53v.008c0 .47.097.88.29 1.23.2.352.498.648.897.889.398.24.899.427 1.503.562l1.564.343c.522.123.897.281 1.125.474a.872.872 0 0 1 .343.704v.008c0 .24-.079.452-.237.633a1.605 1.605 0 0 1-.651.43c-.269.1-.589.15-.958.15-.539 0-.972-.105-1.301-.316a1.546 1.546 0 0 1-.65-.826l-.009-.018h-2.171l.009.026c.059.54.258 1.017.598 1.433.34.41.803.732 1.388.967.592.234 1.292.352 2.101.352zM202.984 20.689c.651 0 1.222-.083 1.714-.247.492-.17.908-.39 1.248-.659.346-.275.618-.571.818-.888.205-.322.345-.638.422-.949l.017-.088h-2.074l-.026.062c-.065.152-.188.31-.37.474a2.38 2.38 0 0 1-.685.414c-.281.11-.618.167-1.011.167-.504 0-.94-.112-1.309-.334a2.197 2.197 0 0 1-.844-.967c-.199-.422-.299-.926-.299-1.512v-.879c0-.615.1-1.134.299-1.556.205-.427.48-.75.826-.966a2.204 2.204 0 0 1 1.204-.334c.445 0 .838.105 1.178.316.346.211.615.527.808.95.194.421.29.952.29 1.59v.87l1.038-1.37h-6.724v1.467h7.796v-.72c0-.967-.179-1.811-.536-2.532a3.975 3.975 0 0 0-1.53-1.679c-.656-.404-1.438-.606-2.346-.606-.909 0-1.7.208-2.373.624a4.164 4.164 0 0 0-1.565 1.749c-.363.744-.545 1.62-.545 2.628v.009c0 1.02.185 1.901.554 2.645.369.738.894 1.31 1.573 1.714.686.404 1.503.607 2.452.607zM209.462 20.495h2.18v-5.572c0-.463.099-.861.298-1.196.2-.333.478-.591.835-.773.364-.181.788-.272 1.275-.272.187 0 .369.011.545.035.181.017.36.047.536.088v-1.96a2.847 2.847 0 0 0-.404-.07 4.151 4.151 0 0 0-.475-.027c-.627 0-1.154.144-1.582.43-.422.282-.715.683-.879 1.205h-.149v-1.477h-2.18v9.59z" fill="#E8E8E8"/><defs><linearGradient id="paint0_linear_507_959" x2="0" y2="28" gradientUnits="userSpaceOnUse"><stop stop-color="#2196F3"/><stop offset="1" stop-color="#1478EE"/></linearGradient><linearGradient id="paint1_linear_507_959" x1="11.815" y1="14.697" x2="11.815" y2="17.321" gradientUnits="userSpaceOnUse"><stop/><stop offset="1" stop-opacity=".01"/></linearGradient><linearGradient id="paint2_linear_507_959" x1="8" y1="3" x2="8" y2="19" gradientUnits="userSpaceOnUse"><stop stop-color="#89D8FD"/><stop offset="1" stop-color="#70C8FA"/></linearGradient><linearGradient id="paint3_linear_507_959" x1="3" y1="9" x2="3" y2="19" gradientUnits="userSpaceOnUse"><stop stop-color="#C6FB85"/><stop offset="1" stop-color="#B3F364"/></linearGradient><linearGradient id="paint4_linear_507_959" x1="4.43" y1="18.621" x2="4.43" y2="24.063" gradientUnits="userSpaceOnUse"><stop stop-color="#70C8FA"/><stop offset="1" stop-color="#70C8FA" stop-opacity=".01"/></linearGradient><linearGradient id="paint5_linear_507_959" x1="16.598" y1="18.621" x2="16.598" y2="24.063" gradientUnits="userSpaceOnUse"><stop stop-color="#70C8FA"/><stop offset="1" stop-color="#70C8FA" stop-opacity=".01"/></linearGradient><linearGradient id="paint6_linear_507_959" x1="1.859" y1="17.5" x2="1.859" y2="25.02" gradientUnits="userSpaceOnUse"><stop stop-color="#1E1E1E"/><stop offset="1"/></linearGradient></defs></svg>